<svg width="60" height="60" viewBox="0 0 60 60" fill="none" xmlns="http://www.w3.org/2000/svg">
<path d="M26.6055 16.4783L18.6628 7.31057C17.7472 6.25411 16.0685 6.2588 15.0049 7.32465L8.47332 13.8677C6.52933 15.8139 5.9729 18.7039 7.0975 21.0211C13.816 34.931 25.0349 46.165 38.9362 52.9026C41.2511 54.0272 44.139 53.4708 46.0829 51.5245L52.6756 44.9205C53.7439 43.8523 53.7462 42.1643 52.6803 41.2487L43.4769 33.3487C42.5143 32.5224 41.0187 32.6304 40.0538 33.5976L36.8513 36.8045C36.6874 36.9764 36.4716 37.0896 36.237 37.1269C36.0025 37.1643 35.7622 37.1236 35.553 37.0111C30.3184 33.9969 25.9763 29.6493 22.9687 24.4111C22.8561 24.2016 22.8153 23.9609 22.8526 23.7259C22.8899 23.491 23.0033 23.2748 23.1753 23.1105L26.3684 19.9153C27.3357 18.9433 27.4413 17.4408 26.6055 16.4759V16.4783Z" stroke="#4C868D" stroke-width="3" stroke-linecap="round" stroke-linejoin="round"/>
</svg>
